<svg xmlns="http://www.w3.org/2000/svg" version="1.1" xmlns:xlink="http://www.w3.org/1999/xlink" xmlns:svgjs="http://svgjs.dev/svgjs" width="1500" height="1500" viewBox="0 0 1500 1500"><rect width="1500" height="1500" fill="#000000"></rect><g transform="matrix(0.6666666666666666,0,0,0.6666666666666666,250,250.0007826885648)"><svg viewBox="0 0 280 280" data-background-color="#ffffff" preserveAspectRatio="xMidYMid meet" height="1500" width="1500" xmlns="http://www.w3.org/2000/svg" xmlns:xlink="http://www.w3.org/1999/xlink"><g id="tight-bounds" transform="matrix(1,0,0,1,0,0.00004114232697816078)"><svg viewBox="0 0 280 280" height="280" width="280"><g><svg viewBox="0 0 280 280" height="280" width="280"><g><svg viewBox="0 0 280 280" height="280" width="280"><g id="textblocktransform"><svg viewBox="0 0 280 280" height="280" width="280" id="textblock"><g><svg viewBox="0 0 280 280" height="280" width="280"><g transform="matrix(1,0,0,1,81.7670939839985,74.00336708925556)"><svg viewBox="0 0 116.46581203200297 131.99326582148888" height="131.99326582148888" width="116.46581203200297"><g id="icon-0"><svg xmlns="http://www.w3.org/2000/svg" xmlns:xlink="http://www.w3.org/1999/xlink" version="1.1" x="0" y="0" viewBox="36 32.092 88.155 99.908" enable-background="new 0 0 160 160" xml:space="preserve" height="131.99326582148888" width="116.46581203200297" class="icon-xg-0" data-fill-palette-color="accent" id="xg-0"><g fill="#636365" data-fill-palette-color="accent"><path fill-rule="evenodd" clip-rule="evenodd" d="M80.077 104.504c-14.665 0-26.987-10.026-30.488-23.597-5.385 0.516-9.583 1.03-11.809 1.319C45.144 108.669 73.237 132 80.623 132c8.628 0 35.025-23.181 41.885-49.756-2.192-0.284-6.451-0.807-11.945-1.332C107.061 94.48 94.74 104.504 80.077 104.504z" fill="#ffffff" data-fill-palette-color="accent"></path><path fill-rule="evenodd" clip-rule="evenodd" d="M59.813 87.979c3.065 4.144 7.259 7.211 12.126 8.871 2.605 0.889 5.319 1.343 8.065 1.35 2.754 0.009 5.489-0.41 8.101-1.287 1.597-0.534 3.158-1.212 4.617-2.058l0 0c2.984-1.731 5.526-4.039 7.585-6.811 3.099-4.17 4.798-9.14 4.933-14.351l0.002-0.207c0.005-0.131 0.007-0.264 0.008-0.396 0.015-5.116-1.502-10.05-4.383-14.264-3.107-4.547-7.69-7.997-12.901-9.717-2.532-0.834-5.165-1.261-7.828-1.267-2.75-0.008-5.47 0.433-8.081 1.31-5.102 1.712-9.66 5.148-12.724 9.589-2.893 4.193-4.428 9.107-4.442 14.213 0 0.116 0.002 0.232 0.006 0.347l0.005 0.179C54.995 78.747 56.694 83.761 59.813 87.979zM101.132 72.308c0.555 1.079 1.248 2.564 1.3 3.784-0.001-0.021 0.575-0.404 0.635-0.458 0.022-0.021 0.043-0.038 0.065-0.061 0.074-0.068 0.152-0.142 0.238-0.228 0.013-0.014 0.026-0.027 0.04-0.04 0.062-0.062 0.125-0.13 0.191-0.199-0.346 3.977-1.678 7.668-3.755 10.831-0.043-0.3-0.076-0.607-0.18-0.889-0.18-0.499-0.298-0.425-0.671-0.123-0.857 0.698-1.936 1.053-2.956 1.437-1.687 0.634-3.474 0.99-5.271 1.084l-4.991-6.441 3.408-10.231c0 0 8.366-2.68 8.367-2.678C99.051 69.204 100.276 70.651 101.132 72.308zM80.39 54.729c0.331-0.234 0.677-0.458 1.024-0.66 0.95-0.552 1.969-0.984 3.025-1.288 1.01-0.29 2.006-0.26 3.03-0.434 0.6-0.103 1.237-0.097 1.824-0.233-0.04-0.118-0.09-0.241-0.147-0.356-0.008-0.019-0.015-0.035-0.024-0.056-0.02-0.045-0.044-0.097-0.072-0.152-0.011-0.021-0.017-0.038-0.027-0.059-0.038-0.077-0.081-0.163-0.13-0.256-0.004-0.006 0.002-0.018 0.004-0.028 3.896 1.557 7.276 4.125 9.819 7.38-0.084-0.015-0.169-0.029-0.247-0.041-0.012-0.001-0.027-0.004-0.039-0.006-0.114-0.016-0.217-0.027-0.312-0.036-0.168-0.015-0.622-0.113-0.73 0.067-0.144 0.234 0.165 0.727 0.204 0.965 0.044 0.264 0.057 0.535 0.106 0.803 0.118 0.627 0.192 1.262 0.229 1.898 0.048 0.814 0.033 1.633-0.035 2.445-0.041 0.471-0.102 0.942-0.18 1.409-0.032 0.187-0.169 1.468-0.32 1.516l-8.364 2.662-8.662-6.333L80.39 54.729zM85.237 81.198l5.052 6.52c-0.742 1.993-1.955 3.801-3.523 5.239-0.479 0.438-0.988 0.843-1.529 1.199-0.146 0.097-0.361 0.179-0.486 0.301-0.639 0.627 0.783 1.149 1.129 1.312 0.025 0.012 0.053 0.022 0.078 0.034 0.023 0.01 0.051 0.02 0.074 0.029-1.873 0.48-3.834 0.736-5.855 0.736-2.172 0-4.219-0.275-6.134-0.774 0.023-0.009 0.048-0.02 0.07-0.029 0.011-0.006 0.022-0.011 0.034-0.016 0.408-0.176 0.856-0.331 1.2-0.622 0.354-0.298 0.419-0.431 0.041-0.655-0.391-0.231-0.767-0.48-1.127-0.756-1.523-1.166-2.788-2.67-3.687-4.36-0.101-0.189-0.806-1.368-0.695-1.528 0.025-0.035 4.655-6.66 4.655-6.66L85.237 81.198zM71.247 51.288c-0.029 0.069-0.058 0.137-0.082 0.197-0.007 0.018-0.012 0.034-0.019 0.051-0.021 0.057-0.041 0.108-0.056 0.152-0.007 0.019-0.012 0.033-0.017 0.049-0.015 0.041-0.026 0.074-0.034 0.101-0.055 0.156-0.112 0.314-0.166 0.466 0.267 0.085 0.596-0.029 0.88-0.009 0.98 0.065 1.903 0.095 2.879 0.315 1.839 0.415 3.601 1.149 5.211 2.125l-0.026 9.202-8.577 6.197-8.394-2.503c-0.18-0.053-0.334-1.585-0.368-1.798-0.225-1.474-0.253-3.272-0.358-4.771-0.069-0.987 0.472-2.555-0.334-2.507-0.043 0.002-0.089 0.005-0.134 0.007C64.15 55.376 67.447 52.849 71.247 51.288zM56.77 75.198c0.089 0.09 0.171 0.169 0.248 0.24 0.246 0.226 0.474 0.526 0.815 0.614 0.212-0.553 0.241-1.197 0.441-1.769 0.219-0.627 0.489-1.235 0.8-1.82 0.408-0.766 0.89-1.493 1.438-2.167 0.309-0.379 0.638-0.742 0.986-1.086 0.148-0.146 1.017-1.106 1.199-1.053 0.002 0.001 8.289 2.471 8.289 2.471l3.231 10.038c0 0-4.708 6.732-4.709 6.735-0.096 0.136-1.408-0.123-1.604-0.149-0.51-0.069-1.016-0.162-1.517-0.275-0.837-0.19-1.661-0.442-2.459-0.758-0.601-0.236-1.187-0.51-1.752-0.821-0.207-0.114-0.407-0.237-0.609-0.359-0.298-0.181-0.515-0.498-0.827-0.64-0.285-0.131-0.254-0.062-0.344 0.238-0.086 0.288-0.109 0.59-0.123 0.892-1.959-3.166-3.167-6.741-3.513-10.344C56.763 75.19 56.767 75.194 56.77 75.198z" fill="#ffffff" data-fill-palette-color="accent"></path><path fill-rule="evenodd" clip-rule="evenodd" d="M79.898 32.092L36 44.686v22.039c0 0 5.405-0.777 13.536-1.56 3.419-13.688 15.794-23.829 30.542-23.829 14.753 0 27.132 10.149 30.546 23.846 8.126 0.776 13.531 1.542 13.531 1.542V44.686L79.898 32.092z" fill="#ffffff" data-fill-palette-color="accent"></path></g></svg></g></svg></g><g id="text-0"><path d="M13.12 90.3l15.656 5.114c0.929 0.303 1.665 0.715 2.208 1.235 0.55 0.522 0.94 1.136 1.171 1.841v0l0.009-0.029c0.206 0.697 0.336 1.389 0.391 2.079 0.057 0.683-0.009 1.312-0.197 1.886v0l-1.13 3.459c-0.188 0.575-0.493 1.125-0.916 1.652-0.432 0.53-0.949 1.011-1.552 1.443v0c-0.624 0.433-1.313 0.7-2.067 0.804-0.75 0.112-1.589 0.016-2.518-0.287v0l-1.544-0.505c-1.074-0.351-1.398-1.177-0.974-2.478v0c0.423-1.295 1.172-1.767 2.246-1.417v0l1.289 0.421c0.569 0.186 1.139 0.183 1.712-0.007 0.573-0.191 0.991-0.69 1.255-1.499v0l0.594-1.819c0.264-0.809 0.221-1.459-0.128-1.951-0.35-0.492-0.809-0.831-1.378-1.017v0l-4.814-1.572c-0.007 0.921-0.064 1.545-0.171 1.874v0l-1.013 3.099c-0.188 0.575-0.497 1.124-0.926 1.648-0.426 0.532-0.93 1.018-1.514 1.456v0c-0.63 0.43-1.325 0.696-2.086 0.797-0.762 0.108-1.595 0.014-2.498-0.281v0l-5.705-1.863c-0.878-0.287-1.599-0.701-2.164-1.242-0.567-0.535-0.964-1.158-1.194-1.869v0l-0.012 0.038c-0.185-0.697-0.297-1.391-0.337-2.082-0.046-0.693 0.025-1.327 0.212-1.902v0l1.13-3.459c0.374-1.144 1.174-2.182 2.402-3.117v0l-0.009 0.028c1.228-0.913 2.752-1.073 4.572-0.478zM17.287 95.972l-5.136-1.678c-0.55-0.18-1.111-0.174-1.684 0.016-0.573 0.191-0.991 0.69-1.255 1.499v0l-0.594 1.82c-0.264 0.809-0.221 1.459 0.128 1.951 0.35 0.492 0.799 0.828 1.349 1.007v0l5.137 1.677c0.55 0.18 1.111 0.174 1.683-0.016 0.573-0.191 0.991-0.69 1.255-1.499v0l0.595-1.819c0.264-0.809 0.221-1.459-0.129-1.951-0.35-0.492-0.799-0.828-1.349-1.007z" fill="#ffffff" data-fill-palette-color="primary"></path><path d="M26.642 66.9l-2.65 4.234c-0.296 0.473-0.771 0.517-1.424 0.132v0c-0.685-0.397-0.866-0.852-0.545-1.365v0c0.194-0.31 0.387-0.706 0.58-1.189 0.189-0.478 0.382-1.023 0.578-1.638v0c0.132-0.599 0.103-1.217-0.087-1.853-0.19-0.636-0.52-1.211-0.99-1.726v0c-0.236-0.312-0.366-0.668-0.39-1.067-0.024-0.399 0.116-0.818 0.42-1.254v0c0.614-0.894 1.381-1.053 2.299-0.479v0l21.457 13.43c0.924 0.578 1.024 1.445 0.301 2.6v0c-0.723 1.155-1.546 1.443-2.47 0.865v0z" fill="#ffffff" data-fill-palette-color="primary"></path><path d="M56.476 46.856l3.829-3.361c0.435-0.381 0.987-0.689 1.657-0.923 0.675-0.239 1.359-0.401 2.052-0.488v0l-0.03 0.026c0.744-0.069 1.464 0.051 2.159 0.36 0.705 0.31 1.378 0.829 2.018 1.558v0l0.684 0.779c1.25 1.424 1.703 2.887 1.36 4.391v0c-0.147 0.739-0.385 1.395-0.714 1.967-0.334 0.567-0.728 1.05-1.182 1.449v0l-4.428 3.887c-0.45 0.395-0.977 0.721-1.583 0.978-0.61 0.252-1.293 0.406-2.05 0.459v0c-1.513 0.161-2.903-0.481-4.17-1.924v0l-0.277-0.315c-0.653-0.744-0.496-1.528 0.471-2.35v0c0.974-0.855 1.781-0.918 2.422-0.188v0l0.25 0.284c0.368 0.42 0.842 0.698 1.422 0.835 0.58 0.137 1.199-0.084 1.858-0.663v0l3.44-3.019c0.659-0.579 0.961-1.167 0.906-1.764-0.06-0.593-0.275-1.099-0.643-1.518v0l-0.638-0.727c-0.197-0.225-0.418-0.416-0.662-0.573-0.249-0.153-0.513-0.252-0.793-0.299-0.285-0.042-0.585-0.017-0.902 0.076-0.317 0.102-0.641 0.297-0.971 0.586v0l-3.806 3.341c-0.884 0.776-2.089 1.277-3.616 1.503v0c-1.436 0.217-2.788-0.396-4.056-1.84v0l-0.776-0.884c-0.609-0.694-1.024-1.414-1.244-2.158-0.225-0.74-0.255-1.474-0.09-2.203v0l-0.03 0.027c0.176-0.676 0.423-1.326 0.742-1.951 0.318-0.615 0.702-1.12 1.151-1.515v0l4.174-3.663c0.45-0.395 0.997-0.707 1.643-0.939 0.651-0.226 1.33-0.389 2.039-0.489v0l-0.023 0.02c0.739-0.065 1.463 0.06 2.173 0.375 0.71 0.315 1.369 0.819 1.978 1.513v0l0.204 0.232c0.32 0.365 0.432 0.739 0.337 1.124-0.1 0.38-0.378 0.783-0.835 1.211v0c-0.937 0.857-1.727 0.919-2.372 0.184v0l-0.177-0.202c-0.381-0.435-0.865-0.713-1.451-0.836-0.581-0.118-1.194 0.106-1.838 0.671v0l-3.229 2.835c-0.644 0.566-0.946 1.144-0.904 1.735 0.051 0.592 0.267 1.105 0.648 1.54v0l0.546 0.622c0.399 0.455 0.891 0.748 1.476 0.88 0.59 0.128 1.207-0.091 1.851-0.656z" fill="#ffffff" data-fill-palette-color="primary"></path><path d="M84.166 22.059l-2.561 1.298 5.706 11.258c0.273 0.539 0.595 0.894 0.965 1.065 0.373 0.176 0.929 0.077 1.67-0.299v0l0.809-0.41c0.8-0.406 1.42-0.124 1.86 0.845v0c0.49 0.966 0.355 1.642-0.404 2.027v0l-1.022 0.518c-0.658 0.334-1.321 0.562-1.99 0.684-0.665 0.114-1.35 0.144-2.055 0.092v0l0.014 0.026c-1.341-0.147-2.44-1.066-3.297-2.755v0l-5.724-11.293-1.209 0.613c-0.741 0.376-1.377 0.091-1.909-0.855v0c-0.493-0.972-0.348-1.657 0.435-2.053v0l1.209-0.613-1.676-3.308c-0.502-0.99-0.166-1.783 1.008-2.378v0c1.138-0.577 1.958-0.37 2.46 0.62v0l1.677 3.308 2.561-1.298c0.806-0.409 1.435-0.116 1.886 0.877v0c0.49 0.966 0.352 1.643-0.413 2.031z" fill="#ffffff" data-fill-palette-color="primary"></path><path d="M148.315 0.001v0c0.744-0.017 1.559 0.138 2.444 0.464v0c0.818 0.308 1.237 0.91 1.257 1.807v0l0.533 23.891c0.025 1.11-0.647 1.68-2.016 1.711v0c-1.362 0.03-2.056-0.509-2.081-1.619v0l-0.397-17.822-1.009-0.077-1.285 4.536-3.847 13.957c-0.234 0.816-0.85 1.222-1.848 1.218v0c-0.439-0.01-0.824-0.115-1.153-0.313-0.324-0.206-0.55-0.503-0.679-0.892v0l-2.671-8.018c-0.547-1.583-1.092-3.197-1.634-4.84-0.549-1.643-1.144-3.461-1.787-5.455v0l-1.004 0.162 0.4 17.921c0.025 1.11-0.644 1.68-2.006 1.71v0c-1.369 0.031-2.066-0.509-2.091-1.618v0l-0.532-23.892c-0.02-0.877 0.372-1.497 1.175-1.861v0c0.849-0.365 1.666-0.546 2.451-0.543v0c0.346-0.008 0.705 0.031 1.079 0.115 0.374 0.085 0.723 0.21 1.046 0.376 0.329 0.166 0.623 0.378 0.881 0.638 0.258 0.26 0.461 0.565 0.609 0.914v0l5.856 18.418c0.368-1.371 0.754-2.859 1.157-4.464 0.403-1.605 0.815-3.233 1.237-4.884 0.429-1.652 0.851-3.283 1.267-4.894 0.416-1.618 0.804-3.126 1.166-4.524v0c0.132-0.329 0.322-0.622 0.568-0.88 0.247-0.258 0.531-0.477 0.853-0.657 0.315-0.18 0.651-0.32 1.008-0.422 0.357-0.101 0.708-0.155 1.053-0.163z" fill="#ffffff" data-fill-palette-color="primary"></path><path d="M175.851 12.798l-4.296 17.372c-0.266 1.078-1.016 1.464-2.248 1.159v0c-1.258-0.311-1.754-1.005-1.487-2.083v0l4.295-17.372c0.266-1.078 1.029-1.461 2.287-1.15v0c1.232 0.305 1.715 0.996 1.449 2.074zM178.005 7.117v0c-0.177 0.716-0.572 1.262-1.185 1.638-0.618 0.368-1.285 0.463-2.002 0.285v0c-0.723-0.179-1.275-0.575-1.657-1.19-0.38-0.621-0.482-1.29-0.305-2.006v0c0.183-0.742 0.587-1.296 1.212-1.662 0.626-0.372 1.3-0.469 2.023-0.29v0c0.716 0.177 1.261 0.575 1.636 1.195 0.369 0.612 0.462 1.288 0.278 2.03z" fill="#ffffff" data-fill-palette-color="primary"></path><path d="M196.203 25.283l-6.099 12.187c-0.497 0.993-1.316 1.203-2.457 0.632v0c-1.135-0.568-1.454-1.349-0.958-2.341v0l6.238-12.464c0.425-0.85 0.926-1.517 1.503-2.001 0.58-0.49 1.259-0.786 2.038-0.887v0c1.486-0.237 2.776-0.082 3.87 0.465v0l4.992 2.499c1.058 0.529 1.958 1.471 2.701 2.823v0c0.725 1.344 0.662 2.866-0.189 4.566v0l-6.237 12.464c-0.497 0.993-1.313 1.205-2.448 0.636v0c-1.141-0.571-1.463-1.353-0.967-2.345v0l6.099-12.188c0.268-0.535 0.363-1.134 0.286-1.796v0l0.009 0.049c-0.018-0.633-0.439-1.156-1.265-1.57v0l-3.879-1.941c-0.85-0.425-1.534-0.455-2.051-0.09v0c-0.502 0.291-0.898 0.725-1.186 1.302z" fill="#ffffff" data-fill-palette-color="primary"></path><path d="M238.267 50.384l-9.365 10.282c-0.622 0.683-1.295 1.18-2.019 1.492-0.719 0.316-1.45 0.432-2.193 0.349v0l0.03 0.027c-0.692-0.099-1.359-0.28-2.002-0.541-0.642-0.252-1.187-0.582-1.634-0.99v0l-4.127-3.759c-0.423-0.385-0.797-0.892-1.123-1.522-0.325-0.62-0.57-1.27-0.733-1.948v0l0.03 0.026c-0.152-0.732-0.104-1.47 0.143-2.215 0.243-0.75 0.675-1.466 1.297-2.15v0l9.365-10.282c0.747-0.821 1.59-0.803 2.529 0.051v0c0.943 0.859 1.041 1.699 0.294 2.52v0l-9.177 10.076c-0.439 0.482-0.703 1.009-0.794 1.583v0c-0.15 0.609 0.126 1.234 0.828 1.873v0l3.207 2.921c0.683 0.622 1.321 0.83 1.913 0.623v0l-0.042 0.002c0.642-0.162 1.166-0.466 1.573-0.913v0l9.177-10.076c0.747-0.821 1.593-0.801 2.536 0.058v0c0.939 0.855 1.034 1.693 0.287 2.513z" fill="#ffffff" data-fill-palette-color="primary"></path><path d="M253.11 73.217l-1.578-2.399-10.545 6.935c-0.505 0.332-0.822 0.692-0.95 1.078-0.133 0.39 0.028 0.932 0.485 1.626v0l0.499 0.758c0.493 0.75 0.283 1.397-0.632 1.943v0c-0.905 0.595-1.591 0.538-2.059-0.173v0l-0.63-0.958c-0.405-0.616-0.707-1.25-0.903-1.9-0.188-0.648-0.295-1.325-0.322-2.031v0l-0.025 0.016c-0.004-1.349 0.785-2.545 2.367-3.585v0l10.579-6.958-0.745-1.132c-0.457-0.694-0.245-1.358 0.634-1.993v0c0.911-0.599 1.607-0.532 2.09 0.201v0l0.745 1.133 3.098-2.038c0.927-0.61 1.753-0.365 2.476 0.735v0c0.701 1.066 0.588 1.904-0.339 2.514v0l-3.099 2.038 1.578 2.399c0.497 0.755 0.277 1.413-0.66 1.973v0c-0.905 0.595-1.593 0.535-2.064-0.182z" fill="#ffffff" data-fill-palette-color="primary"></path><path d="M261.041 94.733l-9.188 3.439c-0.523 0.196-0.95 0.544-1.28 1.044-0.329 0.506-0.343 1.161-0.042 1.964v0l1.52 4.061c0.301 0.803 0.712 1.295 1.234 1.476 0.53 0.185 1.054 0.18 1.571-0.014v0l0.355-0.132c1.021-0.382 1.755 0.024 2.202 1.219v0c0.445 1.189 0.157 1.974-0.864 2.357v0l-0.382 0.143c-0.909 0.34-1.71 0.474-2.406 0.4-0.695-0.073-1.369-0.321-2.024-0.743v0c-1.25-0.838-2.091-1.832-2.522-2.984v0l-2.041-5.453c-0.429-1.145-0.435-2.413-0.019-3.804v0c0.24-0.686 0.637-1.293 1.192-1.819 0.555-0.527 1.265-0.953 2.13-1.277v0l9.253-3.464c1.755-0.657 3.259-0.603 4.511 0.163v0c0.589 0.397 1.105 0.839 1.55 1.326 0.438 0.489 0.759 1.004 0.962 1.545v0l2.041 5.453c0.196 0.523 0.309 1.137 0.339 1.842 0.03 0.706-0.025 1.393-0.165 2.063v0c-0.174 0.654-0.528 1.262-1.062 1.825-0.531 0.554-1.241 0.997-2.132 1.33v0l-4.379 1.639c-0.498 0.186-0.998 0.207-1.499 0.061-0.502-0.146-0.898-0.608-1.19-1.385v0l-2.625-7.012c-0.294-0.784 0.062-1.389 1.066-1.815v0c1.015-0.38 1.677-0.156 1.987 0.672v0l2.066 5.518 3.011-1.17c0.542-0.203 0.97-0.555 1.287-1.057 0.318-0.495 0.327-1.145 0.026-1.947v0l-1.52-4.061c-0.301-0.803-0.735-1.29-1.303-1.461-0.565-0.164-1.119-0.145-1.66 0.058z" fill="#ffffff" data-fill-palette-color="primary"></path><path d="M3.648 142.999c0-5.927 4.805-10.732 10.732-10.732 5.927 0 10.732 4.805 10.732 10.732 0 5.927-4.805 10.732-10.732 10.732-5.927 0-10.732-4.805-10.732-10.732z" fill="#ffffff" data-fill-palette-color="primary"></path><path d="M254.888 142.999c0-5.927 4.805-10.732 10.732-10.732 5.927 0 10.732 4.805 10.732 10.732 0 5.927-4.805 10.732-10.732 10.732-5.927 0-10.732-4.805-10.732-10.732z" fill="#ffffff" data-fill-palette-color="primary"></path></g><g id="text-1"><path d="M34.757 188.741l-15.759 5.154c-0.929 0.304-1.769 0.407-2.52 0.311-0.752-0.097-1.433-0.363-2.045-0.8v0l0.009 0.028c-0.586-0.445-1.105-0.929-1.555-1.452-0.457-0.522-0.78-1.07-0.968-1.645v0l-1.141-3.487c-0.188-0.575-0.264-1.204-0.229-1.887 0.035-0.683 0.171-1.381 0.406-2.094v0c0.254-0.719 0.654-1.347 1.199-1.882 0.545-0.535 1.282-0.954 2.211-1.258v0l1.564-0.511c1.08-0.353 1.834 0.124 2.262 1.431v0c0.426 1.301 0.098 2.129-0.982 2.482v0l-1.299 0.425c-0.575 0.188-1.037 0.528-1.386 1.02-0.354 0.5-0.397 1.158-0.131 1.973v0l0.598 1.828c0.267 0.815 0.689 1.316 1.268 1.505 0.575 0.197 1.15 0.201 1.725 0.013v0l4.842-1.584c-0.54-0.753-0.865-1.298-0.975-1.632v0l-1.019-3.118c-0.188-0.575-0.264-1.204-0.229-1.886 0.035-0.683 0.158-1.377 0.368-2.082v0c0.254-0.719 0.66-1.349 1.218-1.888 0.558-0.539 1.289-0.956 2.192-1.252v0l5.742-1.878c0.884-0.289 1.717-0.383 2.499-0.282 0.775 0.103 1.468 0.373 2.079 0.809v0l-0.012-0.037c0.561 0.453 1.066 0.949 1.514 1.487 0.443 0.541 0.758 1.098 0.946 1.673v0l1.141 3.487c0.376 1.15 0.342 2.468-0.102 3.956v0l-0.009-0.028c-0.45 1.469-1.591 2.503-3.422 3.101zM28 186.619l5.173-1.692c0.556-0.182 1.008-0.522 1.356-1.02 0.356-0.494 0.401-1.148 0.134-1.963v0l-0.599-1.829c-0.267-0.815-0.69-1.32-1.271-1.514-0.573-0.19-1.137-0.195-1.693-0.013v0l-5.174 1.692c-0.55 0.18-1.002 0.517-1.358 1.011-0.348 0.498-0.388 1.155-0.121 1.969v0l0.598 1.829c0.267 0.815 0.686 1.318 1.259 1.508 0.581 0.195 1.146 0.202 1.696 0.022z" fill="#ffffff" data-fill-palette-color="secondary"></path><path d="M44.568 207.934l-2.667-4.259c-0.296-0.473-0.123-0.923 0.519-1.349v0c0.656-0.442 1.145-0.407 1.466 0.106v0c0.198 0.315 0.472 0.665 0.822 1.05 0.35 0.384 0.761 0.802 1.232 1.252v0c0.487 0.377 1.06 0.622 1.719 0.735 0.655 0.107 1.32 0.06 1.993-0.143v0c0.39-0.079 0.769-0.043 1.139 0.11 0.37 0.153 0.689 0.462 0.958 0.929v0c0.539 0.949 0.344 1.714-0.585 2.296v0l-21.589 13.52c-0.929 0.582-1.758 0.293-2.484-0.867v0c-0.73-1.166-0.631-2.04 0.299-2.622v0z" fill="#ffffff" data-fill-palette-color="secondary"></path><path d="M58.424 237.013l3.853 3.379c0.44 0.386 0.822 0.898 1.146 1.535 0.319 0.634 0.568 1.293 0.744 1.979v0l-0.029-0.026c0.166 0.729 0.141 1.463-0.075 2.202-0.215 0.739-0.645 1.476-1.289 2.211v0l-0.691 0.787c-1.258 1.434-2.659 2.079-4.203 1.936v0c-0.761-0.049-1.445-0.202-2.051-0.459-0.615-0.256-1.15-0.584-1.604-0.983v0l-4.46-3.911c-0.455-0.399-0.847-0.884-1.177-1.456-0.339-0.571-0.582-1.231-0.73-1.98v0c-0.362-1.493 0.095-2.966 1.37-4.42v0l0.276-0.315c0.657-0.75 1.462-0.694 2.413 0.167v0c0.979 0.859 1.147 1.656 0.503 2.39v0l-0.256 0.292c-0.368 0.42-0.582 0.926-0.642 1.519-0.059 0.602 0.243 1.194 0.907 1.777v0l3.463 3.037c0.665 0.583 1.289 0.803 1.874 0.662 0.585-0.133 1.061-0.409 1.429-0.829v0l0.644-0.734c0.202-0.23 0.364-0.476 0.489-0.739 0.119-0.267 0.181-0.544 0.185-0.832 0.005-0.288-0.059-0.582-0.192-0.884-0.138-0.307-0.372-0.604-0.701-0.894v0l-3.831-3.359c-0.894-0.784-1.555-1.921-1.982-3.409v0c-0.403-1.405 0.033-2.835 1.308-4.29v0l0.782-0.892c0.614-0.7 1.277-1.209 1.991-1.529 0.709-0.315 1.438-0.44 2.187-0.376v0l-0.03-0.027c0.698 0.091 1.378 0.254 2.038 0.488 0.656 0.24 1.212 0.559 1.667 0.958v0l4.197 3.681c0.455 0.399 0.839 0.903 1.152 1.514 0.309 0.616 0.561 1.27 0.758 1.964v0l-0.023-0.02c0.161 0.734 0.132 1.473-0.088 2.217-0.224 0.749-0.643 1.474-1.256 2.174v0l-0.21 0.239c-0.32 0.365-0.675 0.522-1.064 0.473-0.394-0.045-0.835-0.268-1.323-0.669v0c-0.977-0.821-1.143-1.599-0.499-2.334v0l0.184-0.21c0.386-0.44 0.601-0.958 0.647-1.554 0.036-0.596-0.268-1.176-0.913-1.742v0l-3.253-2.853c-0.65-0.57-1.265-0.795-1.846-0.677-0.585 0.123-1.071 0.405-1.456 0.844v0l-0.552 0.63c-0.399 0.455-0.623 0.983-0.674 1.584-0.054 0.606 0.243 1.194 0.893 1.764z" fill="#ffffff" data-fill-palette-color="secondary"></path><path d="M90.512 251.593l-2.588-1.31-5.738 11.331c-0.273 0.54-0.368 1.013-0.284 1.421 0.078 0.405 0.491 0.796 1.238 1.174v0l0.809 0.41c0.812 0.411 0.956 1.084 0.432 2.018v0c-0.495 0.978-1.129 1.272-1.9 0.882v0l-1.023-0.518c-0.664-0.336-1.242-0.741-1.732-1.213-0.491-0.472-0.922-1.011-1.294-1.616v0l-0.014 0.027c-0.684-1.181-0.595-2.622 0.268-4.324v0l5.751-11.358-1.209-0.612c-0.747-0.378-0.894-1.067-0.44-2.067v0c0.492-0.972 1.133-1.259 1.921-0.86v0l1.21 0.613 1.689-3.335c0.504-0.996 1.35-1.194 2.535-0.594v0c1.138 0.577 1.455 1.363 0.951 2.359v0l-1.688 3.336 2.588 1.31c0.806 0.408 0.943 1.088 0.408 2.04v0c-0.495 0.978-1.126 1.274-1.89 0.886z" fill="#ffffff" data-fill-palette-color="secondary"></path><path d="M149.141 251.875v0c0.744 0.017 1.554 0.211 2.43 0.583v0c0.803 0.344 1.195 0.968 1.175 1.872v0l-0.541 24.04c-0.025 1.116-0.722 1.659-2.091 1.629v0c-1.375-0.031-2.051-0.605-2.026-1.721v0l0.404-17.931-1.004-0.132-1.498 4.503-4.5 13.86c-0.278 0.811-0.914 1.196-1.911 1.154v0c-0.445-0.037-0.827-0.165-1.148-0.385-0.321-0.213-0.533-0.521-0.637-0.922v0l-2.329-8.18c-0.475-1.62-0.95-3.266-1.425-4.938-0.474-1.673-0.991-3.529-1.55-5.569v0l-1.02 0.116-0.405 18.041c-0.025 1.116-0.722 1.659-2.091 1.628v0c-1.375-0.031-2.051-0.605-2.026-1.721v0l0.541-24.04c0.02-0.884 0.442-1.489 1.267-1.817v0c0.865-0.333 1.693-0.477 2.483-0.433v0c0.352 0.008 0.713 0.063 1.084 0.164 0.37 0.101 0.716 0.242 1.037 0.423 0.322 0.18 0.606 0.406 0.852 0.677 0.253 0.278 0.445 0.592 0.578 0.94v0l5.052 18.792c0.43-1.366 0.882-2.845 1.356-4.437 0.481-1.598 0.973-3.216 1.475-4.853 0.502-1.644 0.998-3.268 1.486-4.873 0.488-1.605 0.947-3.1 1.377-4.487v0c0.147-0.322 0.349-0.61 0.608-0.863 0.265-0.247 0.562-0.456 0.892-0.629 0.329-0.165 0.675-0.291 1.036-0.375 0.361-0.085 0.717-0.123 1.069-0.116z" fill="#ffffff" data-fill-palette-color="secondary"></path><path d="M171.692 256.349l4.32 17.479c0.268 1.084-0.218 1.779-1.457 2.085v0c-1.265 0.313-2.031-0.073-2.299-1.157v0l-4.32-17.479c-0.268-1.084 0.23-1.782 1.496-2.095v0c1.239-0.306 1.992 0.083 2.26 1.167zM170.951 250.278v0c0.179 0.723 0.081 1.394-0.293 2.013-0.374 0.62-0.922 1.019-1.645 1.197v0c-0.723 0.179-1.4 0.082-2.033-0.288-0.633-0.371-1.038-0.918-1.216-1.64v0c-0.185-0.748-0.084-1.434 0.303-2.057 0.387-0.623 0.942-1.024 1.664-1.202v0c0.723-0.179 1.394-0.081 2.013 0.293 0.62 0.374 1.022 0.935 1.207 1.684z" fill="#ffffff" data-fill-palette-color="secondary"></path><path d="M192.206 252.867l6.134 12.27c0.499 0.999 0.175 1.785-0.972 2.359v0c-1.141 0.571-1.962 0.357-2.461-0.642v0l-6.272-12.547c-0.428-0.856-0.664-1.663-0.709-2.421-0.039-0.761 0.135-1.483 0.522-2.167v0c0.705-1.341 1.61-2.287 2.715-2.84v0l5.021-2.51c1.064-0.532 2.365-0.688 3.901-0.468v0c1.519 0.229 2.705 1.197 3.558 2.903v0l6.272 12.547c0.499 0.999 0.178 1.783-0.963 2.354v0c-1.147 0.574-1.971 0.361-2.47-0.638v0l-6.134-12.27c-0.27-0.541-0.697-0.978-1.28-1.311v0l0.054 0.018c-0.523-0.363-1.201-0.336-2.033 0.08v0l-3.897 1.948c-0.856 0.428-1.293 0.959-1.311 1.592v0c-0.074 0.58 0.034 1.161 0.325 1.743z" fill="#ffffff" data-fill-palette-color="secondary"></path><path d="M226.507 222.659l9.415 10.344c0.626 0.688 1.063 1.41 1.31 2.165 0.242 0.75 0.29 1.493 0.142 2.23v0l0.03-0.027c-0.169 0.684-0.411 1.336-0.728 1.956-0.316 0.62-0.698 1.134-1.145 1.541v0l-4.151 3.778c-0.433 0.394-0.977 0.723-1.634 0.989-0.652 0.261-1.326 0.443-2.023 0.547v0l0.029-0.027c-0.747 0.078-1.483-0.039-2.206-0.351-0.728-0.317-1.406-0.819-2.033-1.507v0l-9.415-10.344c-0.752-0.826-0.656-1.668 0.289-2.527v0c0.949-0.863 1.799-0.882 2.55-0.057v0l9.227 10.138c0.438 0.482 0.944 0.795 1.516 0.94v0c0.597 0.212 1.249-0.005 1.957-0.649v0l3.222-2.933c0.688-0.626 0.957-1.249 0.808-1.868v0l-0.01 0.049c-0.101-0.663-0.354-1.219-0.761-1.666v0l-9.227-10.138c-0.752-0.826-0.653-1.67 0.295-2.533v0c0.944-0.859 1.791-0.876 2.543-0.05z" fill="#ffffff" data-fill-palette-color="secondary"></path><path d="M241.508 205.166l-1.595 2.423 10.61 6.984c0.505 0.333 0.965 0.48 1.379 0.442 0.411-0.032 0.847-0.398 1.307-1.097v0l0.499-0.758c0.501-0.761 1.185-0.827 2.053-0.2v0c0.916 0.603 1.137 1.265 0.662 1.987v0l-0.631 0.958c-0.409 0.622-0.876 1.15-1.4 1.584-0.525 0.434-1.109 0.802-1.753 1.103v0l0.025 0.016c-1.25 0.546-2.672 0.294-4.265-0.755v0l-10.634-6.999-0.746 1.132c-0.46 0.7-1.161 0.767-2.103 0.203v0c-0.91-0.599-1.123-1.268-0.637-2.006v0l0.746-1.133-3.123-2.055c-0.933-0.614-1.034-1.476-0.303-2.587v0c0.702-1.066 1.519-1.292 2.452-0.678v0l3.123 2.056 1.595-2.423c0.497-0.755 1.188-0.813 2.072-0.176v0c0.916 0.603 1.138 1.263 0.667 1.979z" fill="#ffffff" data-fill-palette-color="secondary"></path><path d="M252.237 188.068l9.25 3.47c0.523 0.196 1.074 0.211 1.655 0.046 0.587-0.163 1.032-0.649 1.335-1.458v0l1.53-4.08c0.303-0.809 0.316-1.457 0.038-1.945-0.278-0.488-0.679-0.83-1.202-1.025v0l-0.355-0.134c-1.027-0.385-1.315-1.178-0.864-2.379v0c0.448-1.195 1.186-1.6 2.213-1.214v0l0.392 0.147c0.915 0.343 1.61 0.771 2.085 1.282 0.481 0.514 0.829 1.149 1.042 1.904v0c0.396 1.462 0.377 2.771-0.057 3.929v0l-2.059 5.488c-0.432 1.151-1.266 2.116-2.502 2.895v0c-0.632 0.359-1.334 0.557-2.108 0.593-0.771 0.03-1.592-0.118-2.463-0.444v0l-9.307-3.492c-1.767-0.663-2.87-1.698-3.307-3.104v0c-0.189-0.688-0.29-1.365-0.303-2.031-0.013-0.665 0.082-1.268 0.285-1.809v0l2.059-5.489c0.196-0.523 0.516-1.063 0.959-1.621 0.447-0.549 0.948-1.032 1.502-1.449v0c0.563-0.385 1.231-0.614 2.004-0.685 0.77-0.066 1.603 0.069 2.499 0.405v0l4.406 1.653c0.504 0.189 0.897 0.503 1.18 0.943 0.282 0.44 0.276 1.051-0.018 1.835v0l-2.648 7.057c-0.294 0.784-0.963 1.005-2.006 0.664v0c-1.021-0.383-1.376-0.988-1.065-1.816v0l2.084-5.554-3.057-1.104c-0.541-0.203-1.099-0.221-1.673-0.053-0.574 0.168-1.013 0.656-1.317 1.465v0l-1.53 4.079c-0.303 0.809-0.294 1.466 0.028 1.97 0.322 0.504 0.754 0.858 1.295 1.061z" fill="#ffffff" data-fill-palette-color="secondary"></path></g></svg></g></svg></g></svg></g><g></g></svg></g><defs></defs></svg><rect width="280" height="280" fill="none" stroke="none" visibility="hidden"></rect></g></svg></g></svg>